<?xml version="1.0" standalone="no"?>
<!DOCTYPE svg PUBLIC "-//W3C//DTD SVG 20010904//EN"
 "http://www.w3.org/TR/2001/REC-SVG-20010904/DTD/svg10.dtd">
<svg version="1.0" xmlns="http://www.w3.org/2000/svg"
 width="568.000000pt" height="568.000000pt" viewBox="0 0 568.000000 568.000000"
 preserveAspectRatio="xMidYMid meet">
<metadata>
Created by potrace 1.11, written by Peter Selinger 2001-2013
</metadata>
<g transform="translate(0.000000,568.000000) scale(0.100000,-0.100000)"
fill="#000000" stroke="none">
<path d="M2680 5664 c-121 -22 -166 -35 -265 -71 -283 -105 -543 -320 -713
-588 -73 -117 -182 -398 -182 -471 0 -13 -17 -27 -58 -46 -119 -57 -209 -159
-252 -288 -19 -55 -21 -81 -18 -162 4 -87 9 -106 41 -171 35 -71 94 -142 150
-183 28 -20 28 -21 30 -135 2 -125 11 -149 53 -149 24 0 53 23 55 43 1 7 1 47
1 90 l0 78 31 -7 c18 -3 38 -10 46 -14 7 -4 39 -72 70 -151 195 -495 516 -911
829 -1072 l63 -32 -6 -85 c-7 -100 -14 -163 -19 -168 -2 -2 -17 -5 -33 -7
-209 -29 -355 -65 -497 -123 -395 -163 -722 -469 -906 -847 -61 -125 -116
-279 -135 -376 -3 -13 -12 -60 -21 -104 -9 -46 -18 -162 -21 -275 -5 -188 -5
-196 15 -214 20 -17 81 -18 1772 -18 1688 0 1752 1 1772 19 20 17 20 25 15
213 -6 204 -7 209 -37 358 -74 359 -282 707 -570 952 -206 176 -497 325 -727
371 -44 9 -63 18 -64 29 0 8 -2 26 -4 40 -1 14 -6 59 -9 101 l-7 76 78 27
c158 56 286 140 439 291 362 355 631 938 699 1515 8 66 8 235 0 315 -23 232
-128 494 -276 692 -175 232 -417 406 -695 497 -183 61 -468 83 -644 50z m426
-109 c42 -9 90 -18 105 -20 84 -15 301 -111 397 -177 117 -79 213 -167 296
-273 109 -138 175 -260 224 -415 48 -149 63 -241 64 -398 1 -94 -3 -143 -17
-242 -2 -14 -7 -45 -10 -70 -13 -90 -76 -313 -126 -448 -142 -380 -366 -720
-605 -921 -107 -91 -271 -179 -370 -200 -73 -16 -96 -32 -97 -68 -1 -31 13
-196 18 -226 2 -10 5 -40 6 -68 2 -30 9 -55 18 -64 14 -12 63 -27 141 -41 35
-7 232 -73 250 -84 32 -20 -23 -247 -96 -395 -214 -427 -636 -471 -892 -92
-55 83 -120 243 -138 340 -2 17 -7 34 -10 38 -2 4 -7 48 -11 97 -5 82 -4 90
13 95 41 13 193 37 264 43 41 3 83 10 92 15 19 10 26 55 44 276 4 43 7 87 8
98 4 37 -14 54 -99 97 -177 88 -343 241 -499 458 -133 185 -236 383 -326 625
-29 77 -55 144 -60 148 -4 5 -41 15 -81 24 -41 8 -77 19 -80 25 -4 6 -6 43 -6
84 0 86 -18 117 -61 109 -35 -6 -44 -18 -47 -62 -2 -21 -4 -42 -4 -47 -2 -15
-42 27 -66 69 -113 195 -12 448 206 520 56 19 62 27 79 115 36 193 134 403
259 560 194 241 460 405 761 468 112 24 349 27 456 7z m-965 -3707 c0 -18 2
-42 4 -53 3 -11 7 -38 9 -60 9 -70 47 -198 83 -282 99 -231 284 -410 468 -454
274 -65 540 86 698 396 34 66 80 191 91 245 2 14 9 49 15 79 6 29 11 55 11 58
0 6 73 -34 134 -75 l60 -40 2 -258 c1 -143 4 -270 7 -284 3 -14 8 -53 11 -87
18 -177 95 -512 170 -731 l25 -72 -92 0 c-616 -2 -2131 0 -2134 4 -2 2 12 53
31 112 60 185 115 403 131 521 3 21 8 47 10 59 40 187 49 547 20 815 -4 35 -2
37 48 62 67 34 168 76 185 77 7 0 12 -13 13 -32z m-350 -160 c0 -13 3 -39 5
-58 8 -63 8 -343 1 -440 -22 -282 -98 -629 -198 -902 -20 -55 -23 -58 -55 -59
-43 0 -118 0 -340 0 l-177 1 6 158 c3 86 9 171 12 187 30 148 40 190 62 260
48 154 154 356 262 500 64 85 222 239 320 313 46 34 88 62 93 62 4 0 8 -10 9
-22z m2147 -223 c237 -250 383 -551 438 -899 2 -17 7 -100 11 -183 l6 -153
-42 -1 c-52 0 -152 0 -239 0 l-68 1 -57 178 c-73 231 -120 438 -142 627 -4 33
-9 74 -12 90 -2 17 -6 124 -8 238 l-5 209 27 -20 c16 -11 56 -50 91 -87z"/>
<path d="M2440 4534 c-53 -16 -104 -51 -125 -87 -15 -26 -15 -30 -1 -52 22
-34 59 -32 105 6 65 52 160 48 226 -10 38 -33 67 -32 91 4 20 30 3 66 -46 100
-74 52 -161 65 -250 39z"/>
<path d="M3520 4541 c-54 -11 -108 -40 -135 -73 -27 -32 -30 -49 -15 -79 12
-22 62 -26 82 -6 66 67 173 72 242 12 16 -14 34 -26 40 -26 39 -4 66 19 66 56
0 27 -54 79 -105 100 -47 19 -126 26 -175 16z"/>
<path d="M2483 4206 c-84 -37 -65 -145 29 -165 70 -16 137 49 116 111 -18 52
-89 78 -145 54z"/>
<path d="M3509 4209 c-37 -14 -64 -68 -52 -104 13 -40 53 -67 98 -67 76 0 123
67 90 128 -10 19 -25 36 -34 38 -38 12 -78 13 -102 5z"/>
<path d="M1840 3710 c-35 -35 -6 -100 45 -100 50 0 78 65 45 104 -18 22 -66
20 -90 -4z"/>
<path d="M2666 3494 c-37 -37 4 -107 57 -97 46 9 55 78 13 105 -19 13 -54 9
-70 -8z"/>
<path d="M2945 3490 c-22 -24 -14 -64 19 -85 39 -25 85 6 86 58 0 16 -41 47
-63 47 -13 0 -32 -9 -42 -20z"/>
<path d="M3229 3494 c-43 -52 12 -119 74 -88 18 10 27 22 27 39 0 52 -70 86
-101 49z"/>
<path d="M1947 3462 c-23 -26 -21 -49 7 -77 17 -17 31 -22 47 -18 49 12 63 59
29 93 -25 25 -62 26 -83 2z"/>
<path d="M3781 3297 c-36 -18 -44 -51 -19 -82 28 -36 78 -32 92 8 17 49 -30
96 -73 74z"/>
<path d="M2456 3281 c-23 -26 -17 -59 15 -83 21 -16 29 -17 52 -7 30 14 37 33
25 69 -16 44 -62 54 -92 21z"/>
<path d="M3448 3288 c-30 -24 -31 -56 -3 -83 18 -19 31 -24 48 -20 47 15 61
61 27 95 -23 23 -49 26 -72 8z"/>
<path d="M2079 3208 c-31 -24 -33 -55 -5 -83 30 -30 57 -32 79 -7 32 35 15 85
-33 97 -14 3 -32 0 -41 -7z"/>
<path d="M2690 3207 c-12 -7 -27 -22 -31 -35 -7 -18 -2 -30 26 -61 38 -41 129
-94 185 -106 47 -11 162 -7 178 5 1 2 5 3 10 4 28 7 118 62 147 92 30 30 35
41 30 63 -13 51 -61 55 -113 10 -51 -45 -115 -71 -175 -71 -60 0 -107 18 -168
65 -62 47 -63 47 -89 34z"/>
<path d="M3442 3084 c-44 -30 -16 -104 40 -104 47 0 66 76 26 104 -12 9 -27
16 -33 16 -6 0 -21 -7 -33 -16z"/>
<path d="M3646 3074 c-23 -22 -20 -51 8 -79 26 -26 46 -25 79 3 21 19 22 41 1
70 -18 26 -65 30 -88 6z"/>
<path d="M2485 3040 c-38 -42 19 -112 71 -88 26 12 36 41 24 73 -15 39 -66 47
-95 15z"/>
<path d="M2192 3014 c-28 -19 -28 -57 0 -84 28 -25 52 -26 78 0 26 26 25 46
-5 75 -28 29 -42 31 -73 9z"/>
<path d="M3230 3000 c-11 -11 -20 -27 -20 -35 0 -20 45 -65 65 -65 21 0 55 36
55 60 0 11 -9 29 -20 40 -11 11 -29 20 -40 20 -11 0 -29 -9 -40 -20z"/>
<path d="M2350 2883 c-41 -15 -51 -62 -20 -93 25 -25 55 -25 80 0 23 23 19 58
-11 83 -22 18 -25 19 -49 10z"/>
<path d="M2672 2864 c-28 -20 -28 -55 1 -82 29 -27 51 -28 77 -2 23 23 19 58
-11 83 -26 21 -38 21 -67 1z"/>
<path d="M3091 2861 c-12 -12 -21 -27 -21 -35 0 -22 40 -66 61 -66 24 0 59 34
59 58 -1 49 -65 77 -99 43z"/>
<path d="M3446 2867 c-26 -19 -24 -66 4 -89 27 -22 39 -22 68 -2 24 17 29 51
10 77 -18 23 -60 30 -82 14z"/>
<path d="M2883 2818 c-30 -15 -36 -48 -14 -78 23 -32 45 -36 76 -16 31 20 32
54 5 84 -23 24 -34 26 -67 10z"/>
<path d="M3300 2720 c-23 -23 -20 -51 8 -82 30 -36 93 -7 92 42 -1 48 -66 74
-100 40z"/>
<path d="M2454 2705 c-19 -29 -11 -60 20 -81 27 -17 69 -6 80 21 24 64 -63
117 -100 60z"/>
<path d="M3097 2642 c-33 -36 -10 -87 42 -97 27 -5 61 30 56 57 -10 52 -67 75
-98 40z"/>
<path d="M2636 2618 c-8 -12 -14 -24 -13 -27 23 -52 32 -61 62 -61 38 0 55 16
55 50 0 55 -74 82 -104 38z"/>
<path d="M2875 2570 c-41 -45 13 -118 69 -92 21 9 26 19 26 46 0 38 -13 53
-52 60 -17 3 -32 -2 -43 -14z"/>
</g>
</svg>
